<svg xmlns="http://www.w3.org/2000/svg" viewBox="0 0 1200 620" role="img" aria-labelledby="title desc">
  <title id="title">AI chatbot platform illustration</title>
  <desc id="desc">A blue chatbot beside a mobile chat interface with automation gears.</desc>
  <rect width="1200" height="620" rx="24" fill="#f8fafc"/>
  <g opacity=".55" fill="#d7dde3">
    <path d="M413 92h28l6 24 21 9 22-13 20 20-13 22 9 21 24 6v28l-24 6-9 21 13 22-20 20-22-13-21 9-6 24h-28l-6-24-21-9-22 13-20-20 13-22-9-21-24-6v-28l24-6 9-21-13-22 20-20 22 13 21-9 6-24Zm14 64a39 39 0 1 0 0 78 39 39 0 0 0 0-78Z"/>
    <path d="M846 266h22l5 19 17 7 17-10 16 16-10 17 7 17 19 5v22l-19 5-7 17 10 17-16 16-17-10-17 7-5 19h-22l-5-19-17-7-17 10-16-16 10-17-7-17-19-5v-22l19-5 7-17-10-17 16-16 17 10 17-7 5-19Z"/>
    <circle cx="226" cy="486" r="29"/>
    <rect x="254" y="438" width="20" height="120" rx="10" transform="rotate(39 264 498)"/>
    <circle cx="312" cy="400" r="22"/>
    <path d="M322 421c21 12 31 30 31 55h-38c0-12-5-20-15-26l22-29Z"/>
  </g>
  <g>
    <rect x="642" y="66" width="286" height="500" rx="42" fill="#415560"/>
    <rect x="660" y="88" width="250" height="456" rx="31" fill="#fff"/>
    <path d="M660 118c0-17 13-30 30-30h42c6 0 11 5 11 11v9c0 7 5 12 12 12h74c7 0 12-5 12-12v-9c0-6 5-11 11-11h28c17 0 30 13 30 30v86H660V118Z" fill="#eef0f2"/>
    <path d="M706 166h5m174 0h5m-5 16h5m-5-32h5" stroke="#24303a" stroke-width="6" stroke-linecap="round"/>
    <text x="785" y="170" text-anchor="middle" font-family="Inter, Arial, sans-serif" font-size="19" font-weight="700" fill="#24303a">Chat</text>
    <path d="M743 183h84" stroke="#9aa3ad" stroke-width="2"/>
    <g fill="#e9ebed">
      <rect x="748" y="246" width="116" height="54" rx="11"/>
      <rect x="682" y="342" width="132" height="56" rx="11"/>
      <rect x="746" y="430" width="120" height="48" rx="11"/>
      <rect x="682" y="504" width="134" height="36" rx="9"/>
    </g>
    <g fill="#cfd5db">
      <rect x="762" y="258" width="78" height="2" rx="1"/>
      <rect x="762" y="270" width="78" height="2" rx="1"/>
      <rect x="762" y="282" width="62" height="2" rx="1"/>
      <rect x="696" y="358" width="76" height="2" rx="1"/>
      <rect x="696" y="371" width="88" height="2" rx="1"/>
      <rect x="696" y="384" width="67" height="2" rx="1"/>
      <rect x="760" y="443" width="86" height="2" rx="1"/>
      <rect x="760" y="456" width="78" height="2" rx="1"/>
      <rect x="698" y="516" width="98" height="2" rx="1"/>
    </g>
    <circle cx="704" cy="272" r="32" fill="#d8dde1"/>
    <circle cx="704" cy="456" r="32" fill="#d8dde1"/>
    <circle cx="842" cy="366" r="34" fill="#d6e5ff"/>
    <circle cx="842" cy="492" r="34" fill="#d6e5ff"/>
  </g>
  <g>
    <path d="M322 219c0-74 58-132 132-132s132 58 132 132v23c13 1 24 13 24 27s-11 26-24 27v5c0 38-31 69-69 69H391c-38 0-69-31-69-69v-5c-13-1-24-13-24-27s11-26 24-27v-23Z" fill="#3f83e8"/>
    <path d="M336 225c0-66 52-119 118-119s118 53 118 119" fill="none" stroke="#91bbff" stroke-width="3"/>
    <rect x="344" y="247" width="220" height="52" rx="27" fill="#26323b"/>
    <circle cx="386" cy="273" r="10" fill="#fff"/>
    <circle cx="520" cy="273" r="10" fill="#fff"/>
    <path d="M423 273c12 28 49 28 61 0" fill="none" stroke="#fff" stroke-width="5" stroke-linecap="round"/>
    <path d="M454 87v-31" stroke="#3f83e8" stroke-width="8" stroke-linecap="round"/>
    <circle cx="454" cy="54" r="14" fill="#3f83e8" stroke="#91bbff" stroke-width="3"/>
    <path d="M354 374c21 62 54 100 99 100s78-38 99-100c-25-18-58-28-99-28s-74 10-99 28Z" fill="#3f83e8"/>
    <path d="M354 374c27 15 60 23 99 23s72-8 99-23" fill="#2f5da5"/>
    <circle cx="454" cy="404" r="38" fill="#26323b"/>
    <circle cx="454" cy="404" r="25" fill="#fff"/>
    <path d="M454 384l18 10v21l-18 10-18-10v-21l18-10Z" fill="none" stroke="#3f83e8" stroke-width="3"/>
    <path d="M322 323l-83-13-38-84" fill="none" stroke="#3f83e8" stroke-width="22" stroke-linecap="round"/>
    <circle cx="238" cy="310" r="21" fill="#26323b"/>
    <path d="M199 226l-14-28m30 24-2-33m31 36 16-25m-38 25c-24-6-38 8-29 32 7 18 22 26 39 20" stroke="#26323b" stroke-width="8" stroke-linecap="round"/>
    <path d="M560 347l40 101" fill="none" stroke="#3f83e8" stroke-width="22" stroke-linecap="round"/>
    <circle cx="594" cy="426" r="21" fill="#26323b"/>
    <path d="M598 451l-18 30m30-24 22 20m-18-34 29 6m-35-13c-6 22 6 35 28 31" stroke="#26323b" stroke-width="8" stroke-linecap="round"/>
  </g>
  <g>
    <path d="M216 73c-33 0-60 25-60 55s27 55 60 55c8 0 17-2 24-5l33 9-12-28c10-9 15-19 15-31 0-30-27-55-60-55Z" fill="#fff" stroke="#415560"/>
    <circle cx="197" cy="130" r="6" fill="#26323b"/>
    <circle cx="218" cy="130" r="6" fill="#26323b"/>
    <circle cx="239" cy="130" r="6" fill="#26323b"/>
  </g>
  <path d="M225 548h706" stroke="#c8d0d8" stroke-width="2"/>
</svg>
