<svg xmlns="http://www.w3.org/2000/svg" viewBox="0 0 1200 620" role="img" aria-labelledby="title desc">
  <title id="title">Cardio Score risk prediction dashboard</title>
  <desc id="desc">A cardiovascular risk prediction dashboard with a heart, chart, and health metrics.</desc>
  <rect width="1200" height="620" rx="24" fill="#f8fafc"/>
  <g opacity=".45">
    <circle cx="162" cy="138" r="58" fill="#dbeafe"/>
    <circle cx="1026" cy="508" r="72" fill="#fee2e2"/>
    <circle cx="1028" cy="126" r="38" fill="#dcfce7"/>
  </g>
  <rect x="134" y="80" width="932" height="460" rx="32" fill="#ffffff" stroke="#d8e0e8" stroke-width="3"/>
  <rect x="134" y="80" width="932" height="78" rx="32" fill="#24303a"/>
  <path d="M134 126h932v32H134z" fill="#24303a"/>
  <circle cx="187" cy="119" r="11" fill="#ef4444"/>
  <circle cx="222" cy="119" r="11" fill="#f59e0b"/>
  <circle cx="257" cy="119" r="11" fill="#22c55e"/>
  <text x="314" y="127" font-family="Inter, Arial, sans-serif" font-size="23" font-weight="700" fill="#fff">Cardio Score</text>
  <text x="864" y="127" font-family="Inter, Arial, sans-serif" font-size="17" font-weight="600" fill="#cbd5e1">ML Risk Dashboard</text>
  <g transform="translate(184 206)">
    <rect width="330" height="260" rx="22" fill="#f1f5f9" stroke="#d8e0e8"/>
    <path d="M166 95c-22-36-80-27-80 22 0 55 80 94 80 94s80-39 80-94c0-49-58-58-80-22Z" fill="#ef4444"/>
    <path d="M58 142h65l20-47 39 96 22-49h69" fill="none" stroke="#ffffff" stroke-width="12" stroke-linecap="round" stroke-linejoin="round"/>
    <text x="38" y="48" font-family="Inter, Arial, sans-serif" font-size="18" font-weight="700" fill="#24303a">Patient Risk Score</text>
    <text x="38" y="233" font-family="Inter, Arial, sans-serif" font-size="44" font-weight="800" fill="#ef4444">87%</text>
    <text x="138" y="232" font-family="Inter, Arial, sans-serif" font-size="16" font-weight="700" fill="#64748b">High risk</text>
  </g>
  <g transform="translate(556 206)">
    <rect width="420" height="260" rx="22" fill="#ffffff" stroke="#d8e0e8"/>
    <text x="30" y="47" font-family="Inter, Arial, sans-serif" font-size="18" font-weight="700" fill="#24303a">Model Comparison</text>
    <line x1="54" y1="207" x2="374" y2="207" stroke="#cbd5e1" stroke-width="3"/>
    <line x1="54" y1="77" x2="54" y2="207" stroke="#cbd5e1" stroke-width="3"/>
    <rect x="92" y="128" width="52" height="79" rx="8" fill="#60a5fa"/>
    <rect x="162" y="98" width="52" height="109" rx="8" fill="#2563eb"/>
    <rect x="262" y="144" width="52" height="63" rx="8" fill="#fca5a5"/>
    <rect x="332" y="82" width="52" height="125" rx="8" fill="#ef4444"/>
    <text x="88" y="233" font-family="Inter, Arial, sans-serif" font-size="13" font-weight="700" fill="#64748b">LR</text>
    <text x="252" y="233" font-family="Inter, Arial, sans-serif" font-size="13" font-weight="700" fill="#64748b">XGBoost</text>
    <path d="M80 112c54-38 95 24 142-6 50-32 84-21 140-64" fill="none" stroke="#22c55e" stroke-width="6" stroke-linecap="round"/>
    <circle cx="80" cy="112" r="7" fill="#22c55e"/>
    <circle cx="222" cy="106" r="7" fill="#22c55e"/>
    <circle cx="362" cy="42" r="7" fill="#22c55e"/>
  </g>
  <g transform="translate(184 484)">
    <rect width="792" height="32" rx="16" fill="#e2e8f0"/>
    <rect width="610" height="32" rx="16" fill="#ef4444"/>
    <text x="24" y="22" font-family="Inter, Arial, sans-serif" font-size="14" font-weight="700" fill="#fff">False-negative penalty optimization improved high-risk detection</text>
  </g>
</svg>
